# MagicaVoxel @ Ephtracy

# group
o 

# material
mtllib wall_raised_small_tile.mtl
usemtl palette

# normals
vn -1 0 0
vn 1 0 0
vn 0 0 1
vn 0 0 -1
vn 0 -1 0
vn 0 1 0

# texcoords
vt 0.00195312 0.5
vt 0.0488281 0.5
vt 0.173828 0.5

# verts
v -0.8 1.7 0.1
v -0.8 1.7 -0.2
v -0.8 2 0.1
v -0.8 2 -0.2
v -0.8 2.1 0.1
v -0.8 2.1 0
v -0.8 2.1 -0.1
v -0.8 2.1 -0.2
v -0.8 2.2 0.1
v -0.8 2.2 0
v -0.8 2.2 -0.1
v -0.8 2.2 -0.2
v -0.8 2.4 0.1
v -0.8 2.4 -0.2
v -0.8 2.6 0.1
v -0.8 2.6 0
v -0.8 2.6 -0.1
v -0.8 2.6 -0.2
v -0.8 2.7 0.1
v -0.8 2.7 0
v -0.8 2.7 -0.1
v -0.8 2.7 -0.2
v -0.8 3 0.1
v -0.8 3 -0.2
v -0.8 3.1 0.1
v -0.8 3.1 0
v -0.8 3.1 -0.1
v -0.8 3.1 -0.2
v -0.8 3.2 0
v -0.8 3.2 -0.1
v -0.4 2.7 0.1
v -0.4 2.7 0
v -0.4 2.7 -0.1
v -0.4 2.7 -0.2
v -0.4 2.9 0.1
v -0.4 2.9 0
v -0.4 2.9 -0.1
v -0.4 2.9 -0.2
v -0.4 3.1 0.1
v -0.4 3.1 0
v -0.4 3.1 -0.1
v -0.4 3.1 -0.2
v -0.3 1.7 0.1
v -0.3 1.7 0
v -0.3 1.7 -0.1
v -0.3 1.7 -0.2
v -0.3 1.9 0.1
v -0.3 1.9 0
v -0.3 1.9 -0.1
v -0.3 1.9 -0.2
v -0.3 2.1 0.1
v -0.3 2.1 0
v -0.3 2.1 -0.1
v -0.3 2.1 -0.2
v 0 2.2 0.1
v 0 2.2 0
v 0 2.2 -0.1
v 0 2.2 -0.2
v 0 2.4 0.1
v 0 2.4 0
v 0 2.4 -0.1
v 0 2.4 -0.2
v 0 2.6 0.1
v 0 2.6 0
v 0 2.6 -0.1
v 0 2.6 -0.2
v 0.4 2.7 0.1
v 0.4 2.7 0
v 0.4 2.7 -0.1
v 0.4 2.7 -0.2
v 0.4 2.9 0.1
v 0.4 2.9 0
v 0.4 2.9 -0.1
v 0.4 2.9 -0.2
v 0.4 3.1 0.1
v 0.4 3.1 0
v 0.4 3.1 -0.1
v 0.4 3.1 -0.2
v 0.5 1.7 0.1
v 0.5 1.7 0
v 0.5 1.7 -0.1
v 0.5 1.7 -0.2
v 0.5 1.9 0.1
v 0.5 1.9 0
v 0.5 1.9 -0.1
v 0.5 1.9 -0.2
v 0.5 2.1 0.1
v 0.5 2.1 0
v 0.5 2.1 -0.1
v 0.5 2.1 -0.2
v -0.5 2.7 0.1
v -0.5 2.7 0
v -0.5 2.7 -0.1
v -0.5 2.7 -0.2
v -0.5 3 0.1
v -0.5 3 0
v -0.5 3 -0.1
v -0.5 3 -0.2
v -0.5 3.1 0.1
v -0.5 3.1 0
v -0.5 3.1 -0.1
v -0.5 3.1 -0.2
v -0.4 1.7 0.1
v -0.4 1.7 0
v -0.4 1.7 -0.1
v -0.4 1.7 -0.2
v -0.4 2 0.1
v -0.4 2 0
v -0.4 2 -0.1
v -0.4 2 -0.2
v -0.4 2.1 0.1
v -0.4 2.1 0
v -0.4 2.1 -0.1
v -0.4 2.1 -0.2
v -0.1 2.2 0.1
v -0.1 2.2 0
v -0.1 2.2 -0.1
v -0.1 2.2 -0.2
v -0.1 2.5 0.1
v -0.1 2.5 0
v -0.1 2.5 -0.1
v -0.1 2.5 -0.2
v -0.1 2.6 0.1
v -0.1 2.6 0
v -0.1 2.6 -0.1
v -0.1 2.6 -0.2
v 0.3 2.7 0.1
v 0.3 2.7 0
v 0.3 2.7 -0.1
v 0.3 2.7 -0.2
v 0.3 3 0.1
v 0.3 3 0
v 0.3 3 -0.1
v 0.3 3 -0.2
v 0.3 3.1 0.1
v 0.3 3.1 0
v 0.3 3.1 -0.1
v 0.3 3.1 -0.2
v 0.4 1.7 0.1
v 0.4 1.7 0
v 0.4 1.7 -0.1
v 0.4 1.7 -0.2
v 0.4 2 0.1
v 0.4 2 0
v 0.4 2 -0.1
v 0.4 2 -0.2
v 0.4 2.1 0.1
v 0.4 2.1 0
v 0.4 2.1 -0.1
v 0.4 2.1 -0.2
v 0.7 2.2 0.1
v 0.7 2.2 0
v 0.7 2.2 -0.1
v 0.7 2.2 -0.2
v 0.7 2.5 0.1
v 0.7 2.5 0
v 0.7 2.5 -0.1
v 0.7 2.5 -0.2
v 0.7 2.6 0.1
v 0.7 2.6 0
v 0.7 2.6 -0.1
v 0.7 2.6 -0.2
v 0.8 1.7 0.1
v 0.8 1.7 -0.2
v 0.8 2 0.1
v 0.8 2 -0.2
v 0.8 2.1 0.1
v 0.8 2.1 0
v 0.8 2.1 -0.1
v 0.8 2.1 -0.2
v 0.8 2.7 0.1
v 0.8 2.7 0
v 0.8 2.7 -0.1
v 0.8 2.7 -0.2
v 0.8 3 0.1
v 0.8 3 -0.2
v 0.8 3.1 0.1
v 0.8 3.1 0
v 0.8 3.1 -0.1
v 0.8 3.1 -0.2
v 0.8 3.2 0
v 0.8 3.2 -0.1
v -0.8 1.7 0.1
v -0.8 2 0.1
v -0.8 2.1 0.1
v -0.8 2.2 0.1
v -0.8 2.4 0.1
v -0.8 2.6 0.1
v -0.8 2.7 0.1
v -0.8 3 0.1
v -0.8 3.1 0.1
v -0.7 2.4 0.1
v -0.7 2.5 0.1
v -0.5 2.7 0.1
v -0.5 3 0.1
v -0.5 3.1 0.1
v -0.4 1.7 0.1
v -0.4 2 0.1
v -0.4 2.1 0.1
v -0.4 2.7 0.1
v -0.4 2.9 0.1
v -0.4 3.1 0.1
v -0.3 1.7 0.1
v -0.3 1.9 0.1
v -0.3 2.1 0.1
v -0.3 2.9 0.1
v -0.3 3 0.1
v -0.2 1.9 0.1
v -0.2 2 0.1
v -0.1 2.2 0.1
v -0.1 2.5 0.1
v -0.1 2.6 0.1
v 0 2.2 0.1
v 0 2.4 0.1
v 0 2.6 0.1
v 0.1 2.4 0.1
v 0.1 2.5 0.1
v 0.3 2.7 0.1
v 0.3 3 0.1
v 0.3 3.1 0.1
v 0.4 1.7 0.1
v 0.4 2 0.1
v 0.4 2.1 0.1
v 0.4 2.7 0.1
v 0.4 2.9 0.1
v 0.4 3.1 0.1
v 0.5 1.7 0.1
v 0.5 1.9 0.1
v 0.5 2.1 0.1
v 0.5 2.9 0.1
v 0.5 3 0.1
v 0.6 1.9 0.1
v 0.6 2 0.1
v 0.7 2.2 0.1
v 0.7 2.5 0.1
v 0.7 2.6 0.1
v 0.8 1.7 0.1
v 0.8 2 0.1
v 0.8 2.1 0.1
v 0.8 2.7 0.1
v 0.8 3 0.1
v 0.8 3.1 0.1
v -0.8 2.1 0
v -0.8 2.2 0
v -0.8 2.6 0
v -0.8 2.7 0
v -0.8 3.1 0
v -0.8 3.2 0
v -0.5 2.7 0
v -0.5 3 0
v -0.5 3.1 0
v -0.4 1.7 0
v -0.4 2 0
v -0.4 2.1 0
v -0.4 2.7 0
v -0.4 2.9 0
v -0.4 3.1 0
v -0.3 1.7 0
v -0.3 1.9 0
v -0.3 2.1 0
v -0.1 2.2 0
v -0.1 2.5 0
v -0.1 2.6 0
v 0 2.2 0
v 0 2.4 0
v 0 2.6 0
v 0.3 2.7 0
v 0.3 3 0
v 0.3 3.1 0
v 0.4 1.7 0
v 0.4 2 0
v 0.4 2.1 0
v 0.4 2.7 0
v 0.4 2.9 0
v 0.4 3.1 0
v 0.5 1.7 0
v 0.5 1.9 0
v 0.5 2.1 0
v 0.7 2.2 0
v 0.7 2.5 0
v 0.7 2.6 0
v 0.8 2.1 0
v 0.8 2.7 0
v 0.8 3.1 0
v 0.8 3.2 0
v -0.8 2.1 -0.1
v -0.8 2.2 -0.1
v -0.8 2.6 -0.1
v -0.8 2.7 -0.1
v -0.8 3.1 -0.1
v -0.8 3.2 -0.1
v -0.5 2.7 -0.1
v -0.5 3 -0.1
v -0.5 3.1 -0.1
v -0.4 1.7 -0.1
v -0.4 2 -0.1
v -0.4 2.1 -0.1
v -0.4 2.7 -0.1
v -0.4 2.9 -0.1
v -0.4 3.1 -0.1
v -0.3 1.7 -0.1
v -0.3 1.9 -0.1
v -0.3 2.1 -0.1
v -0.1 2.2 -0.1
v -0.1 2.5 -0.1
v -0.1 2.6 -0.1
v 0 2.2 -0.1
v 0 2.4 -0.1
v 0 2.6 -0.1
v 0.3 2.7 -0.1
v 0.3 3 -0.1
v 0.3 3.1 -0.1
v 0.4 1.7 -0.1
v 0.4 2 -0.1
v 0.4 2.1 -0.1
v 0.4 2.7 -0.1
v 0.4 2.9 -0.1
v 0.4 3.1 -0.1
v 0.5 1.7 -0.1
v 0.5 1.9 -0.1
v 0.5 2.1 -0.1
v 0.7 2.2 -0.1
v 0.7 2.5 -0.1
v 0.7 2.6 -0.1
v 0.8 2.1 -0.1
v 0.8 2.7 -0.1
v 0.8 3.1 -0.1
v 0.8 3.2 -0.1
v -0.8 1.7 -0.2
v -0.8 2 -0.2
v -0.8 2.1 -0.2
v -0.8 2.2 -0.2
v -0.8 2.4 -0.2
v -0.8 2.6 -0.2
v -0.8 2.7 -0.2
v -0.8 3 -0.2
v -0.8 3.1 -0.2
v -0.7 2.4 -0.2
v -0.7 2.5 -0.2
v -0.5 2.7 -0.2
v -0.5 3 -0.2
v -0.5 3.1 -0.2
v -0.4 1.7 -0.2
v -0.4 2 -0.2
v -0.4 2.1 -0.2
v -0.4 2.7 -0.2
v -0.4 2.9 -0.2
v -0.4 3.1 -0.2
v -0.3 1.7 -0.2
v -0.3 1.9 -0.2
v -0.3 2.1 -0.2
v -0.3 2.9 -0.2
v -0.3 3 -0.2
v -0.2 1.9 -0.2
v -0.2 2 -0.2
v -0.1 2.2 -0.2
v -0.1 2.5 -0.2
v -0.1 2.6 -0.2
v 0 2.2 -0.2
v 0 2.4 -0.2
v 0 2.6 -0.2
v 0.1 2.4 -0.2
v 0.1 2.5 -0.2
v 0.3 2.7 -0.2
v 0.3 3 -0.2
v 0.3 3.1 -0.2
v 0.4 1.7 -0.2
v 0.4 2 -0.2
v 0.4 2.1 -0.2
v 0.4 2.7 -0.2
v 0.4 2.9 -0.2
v 0.4 3.1 -0.2
v 0.5 1.7 -0.2
v 0.5 1.9 -0.2
v 0.5 2.1 -0.2
v 0.5 2.9 -0.2
v 0.5 3 -0.2
v 0.6 1.9 -0.2
v 0.6 2 -0.2
v 0.7 2.2 -0.2
v 0.7 2.5 -0.2
v 0.7 2.6 -0.2
v 0.8 1.7 -0.2
v 0.8 2 -0.2
v 0.8 2.1 -0.2
v 0.8 2.7 -0.2
v 0.8 3 -0.2
v 0.8 3.1 -0.2
v -0.8 1.7 0.1
v -0.4 1.7 0.1
v -0.3 1.7 0.1
v 0.4 1.7 0.1
v 0.5 1.7 0.1
v 0.8 1.7 0.1
v -0.4 1.7 0
v -0.3 1.7 0
v 0.4 1.7 0
v 0.5 1.7 0
v -0.4 1.7 -0.1
v -0.3 1.7 -0.1
v 0.4 1.7 -0.1
v 0.5 1.7 -0.1
v -0.8 1.7 -0.2
v -0.4 1.7 -0.2
v -0.3 1.7 -0.2
v 0.4 1.7 -0.2
v 0.5 1.7 -0.2
v 0.8 1.7 -0.2
v -0.8 2.2 0.1
v -0.1 2.2 0.1
v 0 2.2 0.1
v 0.7 2.2 0.1
v -0.8 2.2 0
v -0.1 2.2 0
v 0 2.2 0
v 0.7 2.2 0
v -0.8 2.2 -0.1
v -0.1 2.2 -0.1
v 0 2.2 -0.1
v 0.7 2.2 -0.1
v -0.8 2.2 -0.2
v -0.1 2.2 -0.2
v 0 2.2 -0.2
v 0.7 2.2 -0.2
v -0.8 2.7 0.1
v -0.5 2.7 0.1
v -0.4 2.7 0.1
v 0.3 2.7 0.1
v 0.4 2.7 0.1
v 0.8 2.7 0.1
v -0.8 2.7 0
v -0.5 2.7 0
v -0.4 2.7 0
v 0.3 2.7 0
v 0.4 2.7 0
v 0.8 2.7 0
v -0.8 2.7 -0.1
v -0.5 2.7 -0.1
v -0.4 2.7 -0.1
v 0.3 2.7 -0.1
v 0.4 2.7 -0.1
v 0.8 2.7 -0.1
v -0.8 2.7 -0.2
v -0.5 2.7 -0.2
v -0.4 2.7 -0.2
v 0.3 2.7 -0.2
v 0.4 2.7 -0.2
v 0.8 2.7 -0.2
v -0.8 2.1 0.1
v -0.4 2.1 0.1
v -0.3 2.1 0.1
v 0.4 2.1 0.1
v 0.5 2.1 0.1
v 0.8 2.1 0.1
v -0.8 2.1 0
v -0.4 2.1 0
v -0.3 2.1 0
v 0.4 2.1 0
v 0.5 2.1 0
v 0.8 2.1 0
v -0.8 2.1 -0.1
v -0.4 2.1 -0.1
v -0.3 2.1 -0.1
v 0.4 2.1 -0.1
v 0.5 2.1 -0.1
v 0.8 2.1 -0.1
v -0.8 2.1 -0.2
v -0.4 2.1 -0.2
v -0.3 2.1 -0.2
v 0.4 2.1 -0.2
v 0.5 2.1 -0.2
v 0.8 2.1 -0.2
v -0.8 2.6 0.1
v -0.1 2.6 0.1
v 0 2.6 0.1
v 0.7 2.6 0.1
v -0.8 2.6 0
v -0.1 2.6 0
v 0 2.6 0
v 0.7 2.6 0
v -0.8 2.6 -0.1
v -0.1 2.6 -0.1
v 0 2.6 -0.1
v 0.7 2.6 -0.1
v -0.8 2.6 -0.2
v -0.1 2.6 -0.2
v 0 2.6 -0.2
v 0.7 2.6 -0.2
v -0.8 3.1 0.1
v -0.5 3.1 0.1
v -0.4 3.1 0.1
v 0.3 3.1 0.1
v 0.4 3.1 0.1
v 0.8 3.1 0.1
v -0.8 3.1 0
v -0.5 3.1 0
v -0.4 3.1 0
v 0.3 3.1 0
v 0.4 3.1 0
v 0.8 3.1 0
v -0.8 3.1 -0.1
v -0.5 3.1 -0.1
v -0.4 3.1 -0.1
v 0.3 3.1 -0.1
v 0.4 3.1 -0.1
v 0.8 3.1 -0.1
v -0.8 3.1 -0.2
v -0.5 3.1 -0.2
v -0.4 3.1 -0.2
v 0.3 3.1 -0.2
v 0.4 3.1 -0.2
v 0.8 3.1 -0.2
v -0.8 3.2 0
v 0.8 3.2 0
v -0.8 3.2 -0.1
v 0.8 3.2 -0.1

# faces
f 3/1/1 2/1/1 1/1/1
f 4/1/1 2/1/1 3/1/1
f 5/2/1 4/2/1 3/2/1
f 6/2/1 4/2/1 5/2/1
f 7/2/1 4/2/1 6/2/1
f 8/2/1 4/2/1 7/2/1
f 10/3/1 7/3/1 6/3/1
f 11/3/1 7/3/1 10/3/1
f 13/1/1 10/1/1 9/1/1
f 13/1/1 12/1/1 11/1/1
f 13/1/1 11/1/1 10/1/1
f 14/1/1 12/1/1 13/1/1
f 15/2/1 14/2/1 13/2/1
f 16/2/1 14/2/1 15/2/1
f 17/2/1 14/2/1 16/2/1
f 18/2/1 14/2/1 17/2/1
f 20/3/1 17/3/1 16/3/1
f 21/3/1 17/3/1 20/3/1
f 23/1/1 20/1/1 19/1/1
f 23/1/1 22/1/1 21/1/1
f 23/1/1 21/1/1 20/1/1
f 24/1/1 22/1/1 23/1/1
f 25/2/1 24/2/1 23/2/1
f 26/2/1 24/2/1 25/2/1
f 27/2/1 24/2/1 26/2/1
f 28/2/1 24/2/1 27/2/1
f 29/3/1 27/3/1 26/3/1
f 30/3/1 27/3/1 29/3/1
f 35/1/1 32/1/1 31/1/1
f 36/1/1 32/1/1 35/1/1
f 37/1/1 34/1/1 33/1/1
f 38/1/1 34/1/1 37/1/1
f 39/2/1 36/2/1 35/2/1
f 40/2/1 36/2/1 39/2/1
f 41/2/1 38/2/1 37/2/1
f 42/2/1 38/2/1 41/2/1
f 47/1/1 44/1/1 43/1/1
f 48/1/1 44/1/1 47/1/1
f 49/1/1 46/1/1 45/1/1
f 50/1/1 46/1/1 49/1/1
f 51/2/1 48/2/1 47/2/1
f 52/2/1 48/2/1 51/2/1
f 53/2/1 50/2/1 49/2/1
f 54/2/1 50/2/1 53/2/1
f 59/1/1 56/1/1 55/1/1
f 60/1/1 56/1/1 59/1/1
f 61/1/1 58/1/1 57/1/1
f 62/1/1 58/1/1 61/1/1
f 63/2/1 60/2/1 59/2/1
f 64/2/1 60/2/1 63/2/1
f 65/2/1 62/2/1 61/2/1
f 66/2/1 62/2/1 65/2/1
f 71/1/1 68/1/1 67/1/1
f 72/1/1 68/1/1 71/1/1
f 73/1/1 70/1/1 69/1/1
f 74/1/1 70/1/1 73/1/1
f 75/2/1 72/2/1 71/2/1
f 76/2/1 72/2/1 75/2/1
f 77/2/1 74/2/1 73/2/1
f 78/2/1 74/2/1 77/2/1
f 83/1/1 80/1/1 79/1/1
f 84/1/1 80/1/1 83/1/1
f 85/1/1 82/1/1 81/1/1
f 86/1/1 82/1/1 85/1/1
f 87/2/1 84/2/1 83/2/1
f 88/2/1 84/2/1 87/2/1
f 89/2/1 86/2/1 85/2/1
f 90/2/1 86/2/1 89/2/1
f 91/1/2 92/1/2 95/1/2
f 95/1/2 92/1/2 96/1/2
f 93/1/2 94/1/2 97/1/2
f 97/1/2 94/1/2 98/1/2
f 95/2/2 96/2/2 99/2/2
f 99/2/2 96/2/2 100/2/2
f 97/2/2 98/2/2 101/2/2
f 101/2/2 98/2/2 102/2/2
f 103/1/2 104/1/2 107/1/2
f 107/1/2 104/1/2 108/1/2
f 105/1/2 106/1/2 109/1/2
f 109/1/2 106/1/2 110/1/2
f 107/2/2 108/2/2 111/2/2
f 111/2/2 108/2/2 112/2/2
f 109/2/2 110/2/2 113/2/2
f 113/2/2 110/2/2 114/2/2
f 115/1/2 116/1/2 119/1/2
f 119/1/2 116/1/2 120/1/2
f 117/1/2 118/1/2 121/1/2
f 121/1/2 118/1/2 122/1/2
f 119/2/2 120/2/2 123/2/2
f 123/2/2 120/2/2 124/2/2
f 121/2/2 122/2/2 125/2/2
f 125/2/2 122/2/2 126/2/2
f 127/1/2 128/1/2 131/1/2
f 131/1/2 128/1/2 132/1/2
f 129/1/2 130/1/2 133/1/2
f 133/1/2 130/1/2 134/1/2
f 131/2/2 132/2/2 135/2/2
f 135/2/2 132/2/2 136/2/2
f 133/2/2 134/2/2 137/2/2
f 137/2/2 134/2/2 138/2/2
f 139/1/2 140/1/2 143/1/2
f 143/1/2 140/1/2 144/1/2
f 141/1/2 142/1/2 145/1/2
f 145/1/2 142/1/2 146/1/2
f 143/2/2 144/2/2 147/2/2
f 147/2/2 144/2/2 148/2/2
f 145/2/2 146/2/2 149/2/2
f 149/2/2 146/2/2 150/2/2
f 151/1/2 152/1/2 155/1/2
f 155/1/2 152/1/2 156/1/2
f 153/1/2 154/1/2 157/1/2
f 157/1/2 154/1/2 158/1/2
f 155/2/2 156/2/2 159/2/2
f 159/2/2 156/2/2 160/2/2
f 157/2/2 158/2/2 161/2/2
f 161/2/2 158/2/2 162/2/2
f 163/1/2 164/1/2 165/1/2
f 165/1/2 164/1/2 166/1/2
f 165/2/2 166/2/2 167/2/2
f 167/2/2 166/2/2 168/2/2
f 168/2/2 166/2/2 169/2/2
f 169/2/2 166/2/2 170/2/2
f 168/3/2 169/3/2 172/3/2
f 172/3/2 169/3/2 173/3/2
f 171/1/2 172/1/2 175/1/2
f 173/1/2 174/1/2 175/1/2
f 172/1/2 173/1/2 175/1/2
f 175/1/2 174/1/2 176/1/2
f 175/2/2 176/2/2 177/2/2
f 177/2/2 176/2/2 178/2/2
f 178/2/2 176/2/2 179/2/2
f 179/2/2 176/2/2 180/2/2
f 178/3/2 179/3/2 181/3/2
f 181/3/2 179/3/2 182/3/2
f 192/1/3 187/1/3 186/1/3
f 192/2/3 188/2/3 187/2/3
f 193/2/3 188/2/3 192/2/3
f 194/1/3 190/1/3 189/1/3
f 195/2/3 191/2/3 190/2/3
f 195/1/3 190/1/3 194/1/3
f 196/2/3 191/2/3 195/2/3
f 197/1/3 184/1/3 183/1/3
f 198/2/3 185/2/3 184/2/3
f 198/1/3 184/1/3 197/1/3
f 199/2/3 185/2/3 198/2/3
f 206/2/3 202/2/3 201/2/3
f 206/1/3 201/1/3 200/1/3
f 207/2/3 202/2/3 206/2/3
f 208/2/3 205/2/3 204/2/3
f 208/1/3 204/1/3 203/1/3
f 209/2/3 205/2/3 208/2/3
f 210/1/3 192/1/3 186/1/3
f 210/1/3 193/1/3 192/1/3
f 211/2/3 188/2/3 193/2/3
f 211/1/3 193/1/3 210/1/3
f 212/2/3 188/2/3 211/2/3
f 216/1/3 214/1/3 213/1/3
f 216/2/3 215/2/3 214/2/3
f 217/2/3 215/2/3 216/2/3
f 218/1/3 207/1/3 206/1/3
f 218/1/3 206/1/3 200/1/3
f 219/2/3 202/2/3 207/2/3
f 219/1/3 207/1/3 218/1/3
f 220/2/3 202/2/3 219/2/3
f 221/1/3 209/1/3 208/1/3
f 221/1/3 208/1/3 203/1/3
f 222/2/3 205/2/3 209/2/3
f 222/1/3 209/1/3 221/1/3
f 223/2/3 205/2/3 222/2/3
f 230/2/3 226/2/3 225/2/3
f 230/1/3 225/1/3 224/1/3
f 231/2/3 226/2/3 230/2/3
f 232/2/3 229/2/3 228/2/3
f 232/1/3 228/1/3 227/1/3
f 233/2/3 229/2/3 232/2/3
f 234/1/3 217/1/3 216/1/3
f 234/1/3 216/1/3 213/1/3
f 235/2/3 215/2/3 217/2/3
f 235/1/3 217/1/3 234/1/3
f 236/2/3 215/2/3 235/2/3
f 237/1/3 233/1/3 232/1/3
f 237/1/3 232/1/3 227/1/3
f 238/2/3 229/2/3 233/2/3
f 238/1/3 233/1/3 237/1/3
f 239/2/3 229/2/3 238/2/3
f 240/1/3 231/1/3 230/1/3
f 240/1/3 230/1/3 224/1/3
f 241/2/3 226/2/3 231/2/3
f 241/1/3 231/1/3 240/1/3
f 242/2/3 226/2/3 241/2/3
f 249/3/3 246/3/3 245/3/3
f 251/3/3 248/3/3 247/3/3
f 254/3/3 244/3/3 243/3/3
f 255/3/3 250/3/3 249/3/3
f 255/3/3 249/3/3 245/3/3
f 255/3/3 251/3/3 250/3/3
f 256/3/3 251/3/3 255/3/3
f 257/3/3 248/3/3 251/3/3
f 257/3/3 251/3/3 256/3/3
f 258/3/3 253/3/3 252/3/3
f 258/3/3 254/3/3 253/3/3
f 259/3/3 254/3/3 258/3/3
f 260/3/3 244/3/3 254/3/3
f 260/3/3 254/3/3 259/3/3
f 261/3/3 244/3/3 260/3/3
f 263/3/3 255/3/3 245/3/3
f 264/3/3 262/3/3 261/3/3
f 264/3/3 263/3/3 262/3/3
f 264/3/3 261/3/3 260/3/3
f 265/3/3 263/3/3 264/3/3
f 266/3/3 255/3/3 263/3/3
f 266/3/3 263/3/3 265/3/3
f 267/3/3 255/3/3 266/3/3
f 269/3/3 248/3/3 257/3/3
f 272/3/3 264/3/3 260/3/3
f 273/3/3 268/3/3 267/3/3
f 273/3/3 267/3/3 266/3/3
f 273/3/3 269/3/3 268/3/3
f 274/3/3 269/3/3 273/3/3
f 275/3/3 248/3/3 269/3/3
f 275/3/3 269/3/3 274/3/3
f 276/3/3 272/3/3 271/3/3
f 276/3/3 271/3/3 270/3/3
f 277/3/3 272/3/3 276/3/3
f 278/3/3 264/3/3 272/3/3
f 278/3/3 272/3/3 277/3/3
f 279/3/3 264/3/3 278/3/3
f 281/3/3 273/3/3 266/3/3
f 282/3/3 280/3/3 279/3/3
f 282/3/3 281/3/3 280/3/3
f 282/3/3 279/3/3 278/3/3
f 283/3/3 273/3/3 281/3/3
f 283/3/3 281/3/3 282/3/3
f 284/3/3 248/3/3 275/3/3
f 285/3/3 248/3/3 284/3/3
f 288/3/4 289/3/4 292/3/4
f 290/3/4 291/3/4 294/3/4
f 286/3/4 287/3/4 297/3/4
f 292/3/4 293/3/4 298/3/4
f 288/3/4 292/3/4 298/3/4
f 293/3/4 294/3/4 298/3/4
f 298/3/4 294/3/4 299/3/4
f 294/3/4 291/3/4 300/3/4
f 299/3/4 294/3/4 300/3/4
f 295/3/4 296/3/4 301/3/4
f 296/3/4 297/3/4 301/3/4
f 301/3/4 297/3/4 302/3/4
f 297/3/4 287/3/4 303/3/4
f 302/3/4 297/3/4 303/3/4
f 303/3/4 287/3/4 304/3/4
f 288/3/4 298/3/4 306/3/4
f 304/3/4 305/3/4 307/3/4
f 305/3/4 306/3/4 307/3/4
f 303/3/4 304/3/4 307/3/4
f 307/3/4 306/3/4 308/3/4
f 306/3/4 298/3/4 309/3/4
f 308/3/4 306/3/4 309/3/4
f 309/3/4 298/3/4 310/3/4
f 300/3/4 291/3/4 312/3/4
f 303/3/4 307/3/4 315/3/4
f 310/3/4 311/3/4 316/3/4
f 309/3/4 310/3/4 316/3/4
f 311/3/4 312/3/4 316/3/4
f 316/3/4 312/3/4 317/3/4
f 312/3/4 291/3/4 318/3/4
f 317/3/4 312/3/4 318/3/4
f 314/3/4 315/3/4 319/3/4
f 313/3/4 314/3/4 319/3/4
f 319/3/4 315/3/4 320/3/4
f 315/3/4 307/3/4 321/3/4
f 320/3/4 315/3/4 321/3/4
f 321/3/4 307/3/4 322/3/4
f 309/3/4 316/3/4 324/3/4
f 322/3/4 323/3/4 325/3/4
f 323/3/4 324/3/4 325/3/4
f 321/3/4 322/3/4 325/3/4
f 324/3/4 316/3/4 326/3/4
f 325/3/4 324/3/4 326/3/4
f 318/3/4 291/3/4 327/3/4
f 327/3/4 291/3/4 328/3/4
f 332/1/4 333/1/4 338/1/4
f 333/2/4 334/2/4 338/2/4
f 338/2/4 334/2/4 339/2/4
f 335/1/4 336/1/4 340/1/4
f 336/2/4 337/2/4 341/2/4
f 340/1/4 336/1/4 341/1/4
f 341/2/4 337/2/4 342/2/4
f 329/1/4 330/1/4 343/1/4
f 330/2/4 331/2/4 344/2/4
f 343/1/4 330/1/4 344/1/4
f 344/2/4 331/2/4 345/2/4
f 347/2/4 348/2/4 352/2/4
f 346/1/4 347/1/4 352/1/4
f 352/2/4 348/2/4 353/2/4
f 350/2/4 351/2/4 354/2/4
f 349/1/4 350/1/4 354/1/4
f 354/2/4 351/2/4 355/2/4
f 332/1/4 338/1/4 356/1/4
f 338/1/4 339/1/4 356/1/4
f 339/2/4 334/2/4 357/2/4
f 356/1/4 339/1/4 357/1/4
f 357/2/4 334/2/4 358/2/4
f 359/1/4 360/1/4 362/1/4
f 360/2/4 361/2/4 362/2/4
f 362/2/4 361/2/4 363/2/4
f 352/1/4 353/1/4 364/1/4
f 346/1/4 352/1/4 364/1/4
f 353/2/4 348/2/4 365/2/4
f 364/1/4 353/1/4 365/1/4
f 365/2/4 348/2/4 366/2/4
f 354/1/4 355/1/4 367/1/4
f 349/1/4 354/1/4 367/1/4
f 355/2/4 351/2/4 368/2/4
f 367/1/4 355/1/4 368/1/4
f 368/2/4 351/2/4 369/2/4
f 371/2/4 372/2/4 376/2/4
f 370/1/4 371/1/4 376/1/4
f 376/2/4 372/2/4 377/2/4
f 374/2/4 375/2/4 378/2/4
f 373/1/4 374/1/4 378/1/4
f 378/2/4 375/2/4 379/2/4
f 362/1/4 363/1/4 380/1/4
f 359/1/4 362/1/4 380/1/4
f 363/2/4 361/2/4 381/2/4
f 380/1/4 363/1/4 381/1/4
f 381/2/4 361/2/4 382/2/4
f 378/1/4 379/1/4 383/1/4
f 373/1/4 378/1/4 383/1/4
f 379/2/4 375/2/4 384/2/4
f 383/1/4 379/1/4 384/1/4
f 384/2/4 375/2/4 385/2/4
f 376/1/4 377/1/4 386/1/4
f 370/1/4 376/1/4 386/1/4
f 377/2/4 372/2/4 387/2/4
f 386/1/4 377/1/4 387/1/4
f 387/2/4 372/2/4 388/2/4
f 395/1/5 390/1/5 389/1/5
f 396/1/5 392/1/5 391/1/5
f 397/1/5 392/1/5 396/1/5
f 398/1/5 394/1/5 393/1/5
f 399/1/5 395/1/5 389/1/5
f 399/3/5 396/3/5 395/3/5
f 400/1/5 397/1/5 396/1/5
f 400/3/5 396/3/5 399/3/5
f 401/3/5 398/3/5 397/3/5
f 401/1/5 397/1/5 400/1/5
f 402/1/5 394/1/5 398/1/5
f 402/3/5 398/3/5 401/3/5
f 403/1/5 399/1/5 389/1/5
f 404/1/5 399/1/5 403/1/5
f 405/1/5 401/1/5 400/1/5
f 406/1/5 401/1/5 405/1/5
f 407/1/5 394/1/5 402/1/5
f 408/1/5 394/1/5 407/1/5
f 413/1/5 410/1/5 409/1/5
f 414/1/5 410/1/5 413/1/5
f 415/1/5 412/1/5 411/1/5
f 416/1/5 412/1/5 415/1/5
f 421/1/5 418/1/5 417/1/5
f 422/1/5 418/1/5 421/1/5
f 423/1/5 420/1/5 419/1/5
f 424/1/5 420/1/5 423/1/5
f 431/1/5 426/1/5 425/1/5
f 432/1/5 426/1/5 431/1/5
f 433/1/5 428/1/5 427/1/5
f 434/1/5 428/1/5 433/1/5
f 435/1/5 430/1/5 429/1/5
f 436/1/5 430/1/5 435/1/5
f 443/1/5 438/1/5 437/1/5
f 444/1/5 438/1/5 443/1/5
f 445/1/5 440/1/5 439/1/5
f 446/1/5 440/1/5 445/1/5
f 447/1/5 442/1/5 441/1/5
f 448/1/5 442/1/5 447/1/5
f 449/2/6 450/2/6 455/2/6
f 455/2/6 450/2/6 456/2/6
f 451/2/6 452/2/6 457/2/6
f 457/2/6 452/2/6 458/2/6
f 453/2/6 454/2/6 459/2/6
f 459/2/6 454/2/6 460/2/6
f 461/2/6 462/2/6 467/2/6
f 467/2/6 462/2/6 468/2/6
f 463/2/6 464/2/6 469/2/6
f 469/2/6 464/2/6 470/2/6
f 465/2/6 466/2/6 471/2/6
f 471/2/6 466/2/6 472/2/6
f 473/2/6 474/2/6 477/2/6
f 477/2/6 474/2/6 478/2/6
f 475/2/6 476/2/6 479/2/6
f 479/2/6 476/2/6 480/2/6
f 481/2/6 482/2/6 485/2/6
f 485/2/6 482/2/6 486/2/6
f 483/2/6 484/2/6 487/2/6
f 487/2/6 484/2/6 488/2/6
f 489/2/6 490/2/6 495/2/6
f 495/2/6 490/2/6 496/2/6
f 491/2/6 492/2/6 497/2/6
f 497/2/6 492/2/6 498/2/6
f 493/2/6 494/2/6 499/2/6
f 499/2/6 494/2/6 500/2/6
f 501/2/6 502/2/6 507/2/6
f 507/2/6 502/2/6 508/2/6
f 503/2/6 504/2/6 509/2/6
f 509/2/6 504/2/6 510/2/6
f 505/2/6 506/2/6 511/2/6
f 511/2/6 506/2/6 512/2/6
f 513/3/6 514/3/6 515/3/6
f 515/3/6 514/3/6 516/3/6
